<svg width="100" height="100" viewBox="0 0 100 100" fill="none" xmlns="http://www.w3.org/2000/svg">
 <path d="M16.6674 81.0156C16.609 83.2031 20.1441 86.25 21.919 87.5H36.142C34.7076 86.1979 32.5252 83.3125 32 81C31.3436 78.1094 37.1632 76.4062 40.0078 73.0469C42.8524 69.6875 40.0807 65.4688 38.0384 62.9688C35.9962 60.4688 39.2055 57.6562 41.9042 55.0781C44.6029 52.5 42.9253 49.0625 42.3418 47.0312C41.7583 45 43.363 42.5781 45.3323 40.7812C47.3016 38.9844 48.3957 36.25 46.937 33.9062C45.4782 31.5625 45.7699 29.4531 46.4993 28.2031C47.2287 26.9531 48.2498 27.4219 49.3439 30.1562C50.438 32.8906 54.4496 35.0781 55.252 37.6562C56.0543 40.2344 53.8661 41.6406 54.4496 44.9219C55.0331 48.2031 59.5553 50.3906 60.1389 53.5938C60.7224 56.7969 57.4401 57.9688 57.6589 61.7188C57.8778 65.4688 63.901 68.9844 64.1198 71.4062C64.3386 73.8281 59.7012 75.625 59.92 80.2344C60.0951 83.9219 64.8069 86.6146 67.141 87.5L83.3334 87.1875C80.5131 85.7812 75.6087 83.5625 74.5 81C73.1142 77.7969 79.1452 74.2969 77.7594 70.5469C76.3735 66.7969 70.4232 64.5312 69.5479 61.25C68.6727 57.9688 72.9761 56.7188 72.2467 53.4375C71.5173 50.1562 68.1621 49.1406 66.7763 45.625C65.3904 42.1094 68.4539 40.4688 67.2868 37.2656C66.1198 34.0625 61.2329 31.9531 60.8682 28.8281C60.5035 25.7031 63.6399 23.2812 63.2752 19.9219C62.9835 17.2344 58.2911 13.8542 55.9813 12.5L38.8408 12.7344C39.8619 14.1406 41.8458 17.625 41.6124 20.3125C41.3207 23.6719 34.4644 26.0938 33.9539 29.8438C33.4433 33.5938 35.7773 32.8906 35.5585 36.6406C35.3397 40.3906 30.9634 42.0312 30.3069 45.625C29.6505 49.2188 32.0575 49.0625 31.401 52.5781C30.7446 56.0938 23.5966 59.1406 23.5236 62.2656C23.4507 65.3906 28.4835 67.9688 28.4835 70.0781C28.4835 72.1875 24.9095 74.375 22.2837 75.7031C19.6579 77.0312 16.7403 78.2812 16.6674 81.0156Z" fill="#8188A4"/>
 <path d="M55.0331 59.6094C57.586 59.6875 58.3154 58.9062 59.1907 57.8125L58.9718 61.6406L64.3386 70.1562L64.4845 71.9531C64.29 71.5625 63.6384 70.7188 62.5881 70.4688C61.2752 70.1562 44.8947 69.375 42.6336 69.9219C40.8247 70.3594 39.6917 72.2917 39.3513 73.2031L40.1537 67.8125L36.9444 62.3438L37.5279 59.1406L39.0596 55.3906C39.3513 55.651 39.8765 56.2969 39.6431 56.7969C39.3513 57.4219 38.7678 58.8281 40.5913 59.1406C42.4148 59.4531 52.4803 59.5312 55.0331 59.6094Z" fill="#8188A4"/>
 <path fill-rule="evenodd" clip-rule="evenodd" d="M50 87.5C70.7107 87.5 87.5 70.7107 87.5 50C87.5 29.2893 70.7107 12.5 50 12.5C29.2893 12.5 12.5 29.2893 12.5 50C12.5 70.7107 29.2893 87.5 50 87.5ZM50 100C77.6142 100 100 77.6142 100 50C100 22.3858 77.6142 0 50 0C22.3858 0 0 22.3858 0 50C0 77.6142 22.3858 100 50 100Z" fill="#FF6400"/>
 <path fill-rule="evenodd" clip-rule="evenodd" d="M16.4139 74.7472L74.7472 16.4139L83.5861 25.2528L25.2528 83.5861L16.4139 74.7472Z" fill="#FF6400"/>
</svg>