<svg width="60" height="60" viewBox="0 0 60 60" fill="none" xmlns="http://www.w3.org/2000/svg">
    <rect width="60" height="60" rx="20" fill="url(#paint0_linear_0_1)"/>
    <path fill-rule="evenodd" clip-rule="evenodd" d="M24.3666 13.8852C24.7081 14.64 24.3731 15.5286 23.6183 15.8701C18.2383 18.3042 14.5 23.7171 14.5 30C14.5 38.5604 21.4396 45.5 30 45.5C38.5604 45.5 45.5 38.5604 45.5 30C45.5 23.7171 41.7617 18.3042 36.3817 15.8701C35.6269 15.5286 35.2919 14.64 35.6334 13.8852C35.9748 13.1304 36.8635 12.7954 37.6183 13.1368C44.0324 16.0387 48.5 22.496 48.5 30C48.5 40.2173 40.2173 48.5 30 48.5C19.7827 48.5 11.5 40.2173 11.5 30C11.5 22.496 15.9676 16.0387 22.3817 13.1368C23.1365 12.7954 24.0252 13.1304 24.3666 13.8852Z" fill="white"/>
    <path fill-rule="evenodd" clip-rule="evenodd" d="M30 10.5C30.8284 10.5 31.5 11.1716 31.5 12V22C31.5 22.8284 30.8284 23.5 30 23.5C29.1716 23.5 28.5 22.8284 28.5 22V12C28.5 11.1716 29.1716 10.5 30 10.5Z" fill="white"/>
    <defs>
        <linearGradient id="paint0_linear_0_1" x1="30" y1="0" x2="30" y2="60" gradientUnits="userSpaceOnUse">
            <stop stop-color="#FFB443"/>
            <stop offset="1" stop-color="#FF6400"/>
        </linearGradient>
    </defs>
</svg>